<svg xmlns="http://www.w3.org/2000/svg" xmlns:xlink="http://www.w3.org/1999/xlink" width="2560" zoomAndPan="magnify" viewBox="0 0 1920 1919.999921" height="2560" preserveAspectRatio="xMidYMid meet" version="1.0"><defs><g/></defs><g fill="#ffffff" fill-opacity="1"><g transform="translate(-59.740987, 1570.86108)"><g><path d="M 796.0625 -1041.796875 C 792.132812 -1004.523438 789.4375 -968.472656 787.96875 -933.640625 C 786.5 -898.816406 785.765625 -872.085938 785.765625 -853.453125 C 785.765625 -829.910156 786.253906 -807.835938 787.234375 -787.234375 C 788.210938 -766.628906 789.191406 -748.484375 790.171875 -732.796875 L 756.328125 -732.796875 C 749.460938 -801.460938 740.144531 -855.660156 728.375 -895.390625 C 716.601562 -935.117188 696.003906 -963.8125 666.578125 -981.46875 C 637.148438 -999.125 591.535156 -1007.953125 529.734375 -1007.953125 L 437.03125 -1007.953125 C 403.675781 -1007.953125 378.414062 -1005.253906 361.25 -999.859375 C 344.082031 -994.460938 332.554688 -983.179688 326.671875 -966.015625 C 320.785156 -948.847656 317.84375 -922.117188 317.84375 -885.828125 L 317.84375 -155.96875 C 317.84375 -120.65625 321.519531 -94.171875 328.875 -76.515625 C 336.226562 -58.859375 350.695312 -47.085938 372.28125 -41.203125 C 393.863281 -35.316406 425.253906 -31.390625 466.453125 -29.421875 L 466.453125 0 C 440.953125 -1.957031 408.582031 -3.179688 369.34375 -3.671875 C 330.101562 -4.171875 290.375 -4.421875 250.15625 -4.421875 C 211.894531 -4.421875 176.085938 -4.171875 142.734375 -3.671875 C 109.378906 -3.179688 82.398438 -1.957031 61.796875 0 L 61.796875 -29.421875 C 95.148438 -31.390625 120.410156 -35.316406 137.578125 -41.203125 C 154.742188 -47.085938 166.269531 -58.859375 172.15625 -76.515625 C 178.039062 -94.171875 180.984375 -120.65625 180.984375 -155.96875 L 180.984375 -885.828125 C 180.984375 -922.117188 178.039062 -948.847656 172.15625 -966.015625 C 166.269531 -983.179688 154.742188 -994.953125 137.578125 -1001.328125 C 120.410156 -1007.710938 95.148438 -1011.394531 61.796875 -1012.375 L 61.796875 -1041.796875 C 98.097656 -1040.816406 136.359375 -1040.082031 176.578125 -1039.59375 C 216.796875 -1039.101562 256.523438 -1038.613281 295.765625 -1038.125 C 335.003906 -1037.632812 371.546875 -1037.390625 405.390625 -1037.390625 C 439.234375 -1037.390625 466.945312 -1037.390625 488.53125 -1037.390625 C 533.65625 -1037.390625 584.910156 -1037.632812 642.296875 -1038.125 C 699.679688 -1038.613281 750.9375 -1039.835938 796.0625 -1041.796875 Z M 567.984375 -523.84375 C 567.984375 -523.84375 567.984375 -518.9375 567.984375 -509.125 C 567.984375 -499.3125 567.984375 -494.40625 567.984375 -494.40625 L 273.6875 -494.40625 C 273.6875 -494.40625 273.6875 -499.3125 273.6875 -509.125 C 273.6875 -518.9375 273.6875 -523.84375 273.6875 -523.84375 Z M 595.9375 -718.078125 C 592.019531 -662.160156 590.304688 -619.488281 590.796875 -590.0625 C 591.285156 -560.632812 591.53125 -533.65625 591.53125 -509.125 C 591.53125 -484.601562 592.019531 -457.625 593 -428.1875 C 593.976562 -398.757812 596.429688 -356.085938 600.359375 -300.171875 L 566.515625 -300.171875 C 562.585938 -331.566406 557.925781 -362.222656 552.53125 -392.140625 C 547.132812 -422.066406 535.363281 -446.59375 517.21875 -465.71875 C 499.070312 -484.84375 468.414062 -494.40625 425.25 -494.40625 L 425.25 -523.84375 C 457.625 -523.84375 482.394531 -530.460938 499.5625 -543.703125 C 516.726562 -556.953125 529.234375 -573.875 537.078125 -594.46875 C 544.929688 -615.070312 550.328125 -636.410156 553.265625 -658.484375 C 556.210938 -680.554688 559.15625 -700.421875 562.09375 -718.078125 Z M 595.9375 -718.078125 "/></g></g></g><g fill="#c1440e" fill-opacity="1"><g transform="translate(767.227695, 1570.86108)"><g><path d="M 276.640625 -1153.625 L 276.640625 -136.84375 C 276.640625 -95.644531 285.222656 -67.6875 302.390625 -52.96875 C 319.554688 -38.257812 348.25 -30.90625 388.46875 -30.90625 L 388.46875 0 C 371.789062 -0.976562 346.53125 -2.203125 312.6875 -3.671875 C 278.84375 -5.148438 244.753906 -5.890625 210.421875 -5.890625 C 177.066406 -5.890625 143.222656 -5.148438 108.890625 -3.671875 C 74.554688 -2.203125 49.050781 -0.976562 32.375 0 L 32.375 -30.90625 C 72.59375 -30.90625 101.285156 -38.257812 118.453125 -52.96875 C 135.617188 -67.6875 144.203125 -95.644531 144.203125 -136.84375 L 144.203125 -977.0625 C 144.203125 -1021.195312 136.351562 -1053.8125 120.65625 -1074.90625 C 104.957031 -1096 75.53125 -1106.546875 32.375 -1106.546875 L 32.375 -1137.4375 C 63.757812 -1134.5 94.171875 -1133.03125 123.609375 -1133.03125 C 152.054688 -1133.03125 179.273438 -1134.742188 205.265625 -1138.171875 C 231.265625 -1141.609375 255.054688 -1146.757812 276.640625 -1153.625 Z M 276.640625 -1153.625 "/></g></g></g><g fill="#ffffff" fill-opacity="1"><g transform="translate(1173.352676, 1570.86108)"><g><path d="M 403.1875 -778.40625 C 465.96875 -778.40625 522.375 -764.671875 572.40625 -737.203125 C 622.4375 -709.734375 662.410156 -666.566406 692.328125 -607.703125 C 722.242188 -548.847656 737.203125 -472.335938 737.203125 -378.171875 C 737.203125 -283.992188 722.242188 -207.71875 692.328125 -149.34375 C 662.410156 -90.976562 622.4375 -48.0625 572.40625 -20.59375 C 522.375 6.863281 465.96875 20.59375 403.1875 20.59375 C 341.382812 20.59375 285.222656 6.863281 234.703125 -20.59375 C 184.179688 -48.0625 143.957031 -90.976562 114.03125 -149.34375 C 84.113281 -207.71875 69.15625 -283.992188 69.15625 -378.171875 C 69.15625 -472.335938 84.113281 -548.847656 114.03125 -607.703125 C 143.957031 -666.566406 184.179688 -709.734375 234.703125 -737.203125 C 285.222656 -764.671875 341.382812 -778.40625 403.1875 -778.40625 Z M 403.1875 -748.984375 C 347.269531 -748.984375 301.40625 -720.039062 265.59375 -662.15625 C 229.789062 -604.28125 211.890625 -509.617188 211.890625 -378.171875 C 211.890625 -246.710938 229.789062 -152.289062 265.59375 -94.90625 C 301.40625 -37.519531 347.269531 -8.828125 403.1875 -8.828125 C 459.101562 -8.828125 504.960938 -37.519531 540.765625 -94.90625 C 576.566406 -152.289062 594.46875 -246.710938 594.46875 -378.171875 C 594.46875 -509.617188 576.566406 -604.28125 540.765625 -662.15625 C 504.960938 -720.039062 459.101562 -748.984375 403.1875 -748.984375 Z M 403.1875 -748.984375 "/></g></g></g></svg>